<svg xmlns="http://www.w3.org/2000/svg" width="258" height="34" fill="none" viewBox="0 0 258 34"><path fill="#7BA7FE" fill-rule="evenodd" d="M12.0905 16.1033V20.4634L5.90714 22.8091L12.0905 25.17V29.535L0.025115 25.0544H0V20.5739H0.025115L12.0905 16.1033Z" clip-rule="evenodd"/><path fill="#7BA7FE" fill-rule="evenodd" d="M81.9617 29.5349V25.1749L88.135 22.8291L81.9617 20.4833V16.1233L94.007 20.6039H94.0321V25.0845H94.007L81.9617 29.545V29.5349Z" clip-rule="evenodd"/><path fill="#7BA7FE" fill-rule="evenodd" d="M76.783 9.93473L69.6904 32.6742H73.8948L80.9823 9.93473H76.783Z" clip-rule="evenodd"/><path fill="#fff" fill-rule="evenodd" d="M33.8253 20.3125C33.9007 18.5344 33.2678 16.8014 32.0723 15.4853H32.0823C30.8818 14.2296 29.194 13.5465 27.4611 13.6218C25.6076 13.5364 23.7892 14.2296 22.4581 15.5306V14.094H18.2588V29.997H22.4581V22.9547C22.4581 19.3029 23.7741 17.4745 26.4062 17.4745C27.3003 17.4393 28.1593 17.8111 28.742 18.4892C29.3548 19.2527 29.6662 20.2221 29.616 21.2016V29.997H33.8153V20.3075L33.8253 20.3125Z" clip-rule="evenodd"/><path fill="#fff" d="M42.4751 7.25263H38.2758V29.9921H42.4751V7.25263Z"/><path fill="#fff" fill-rule="evenodd" d="M61.382 29.9919H64.8831L70.7801 14.0638H66.2895L62.9743 23.6227L59.5636 14.0638H56.2835L52.8779 23.5925L49.5576 14.0638H45.067L50.9641 29.9919H54.4702L57.9462 20.6289L61.382 29.9919Z" clip-rule="evenodd"/><path fill="url(#paint0_linear_6041_3068)" d="M147.885 20.9305C147.885 20.9305 147.885 20.8954 147.885 20.8753C147.759 18.3788 147.016 16.2139 145.614 14.3704C145.589 14.3151 145.544 14.2749 145.504 14.2197C145.212 13.8329 144.881 13.4612 144.524 13.0996C142.259 10.794 139.431 9.63362 135.965 9.63362C132.499 9.63362 129.681 10.794 127.406 13.0996C125.14 15.38 124.025 18.2382 124.025 21.6991C124.025 23.3466 124.281 24.8686 124.804 26.25C123.925 27.0135 123.156 27.6464 122.548 28.0633C120.082 29.9369 117.45 30.8511 114.702 30.8511C112.196 30.8511 110.121 29.9771 108.454 28.224C106.821 26.471 105.987 24.2809 105.987 21.694C105.987 19.1072 106.821 16.9171 108.454 15.164C110.126 13.411 112.196 12.537 114.702 12.537C117.45 12.537 120.077 13.4512 122.548 15.3248L123.623 12.6575C120.876 10.6282 117.892 9.6286 114.702 9.6286C111.236 9.6286 108.413 10.7839 106.143 13.0945C103.913 15.365 102.798 18.2281 102.798 21.694C102.798 25.16 103.913 28.0231 106.143 30.3337C108.413 32.6042 111.241 33.7595 114.702 33.7595C117.887 33.7595 120.876 32.7649 123.623 30.7356C130.118 25.9938 137.386 18.0372 141.731 18.0372C142.616 18.0372 144.73 18.6752 144.73 21.694C144.73 24.296 143.886 26.476 142.219 28.2291C140.546 29.9821 138.476 30.8662 135.965 30.8662C133.644 30.8662 131.67 30.1077 130.068 28.6309C129.38 29.3894 128.671 30.1378 127.983 30.8662C130.153 32.8001 132.79 33.7645 135.965 33.7645C139.431 33.7645 142.259 32.6192 144.524 30.3388C146.805 28.0332 147.92 25.16 147.92 21.694C147.92 21.5584 147.92 21.4178 147.905 21.2922C147.905 21.1666 147.89 21.0461 147.885 20.9205V20.9305ZM141.018 15.2645C137.341 15.2645 131.766 20.0716 127.441 23.9142C127.28 23.216 127.21 22.4776 127.21 21.6991C127.21 19.077 128.054 16.8819 129.681 15.1691C131.354 13.416 133.463 12.547 135.965 12.547C137.527 12.547 138.919 12.8785 140.149 13.5566C140.893 13.9685 141.586 14.511 142.219 15.1741C142.234 15.1892 142.249 15.2143 142.259 15.2293C142.299 15.2695 142.334 15.3147 142.374 15.3599C141.937 15.2997 141.48 15.2695 141.018 15.2695V15.2645Z"/><path fill="url(#paint1_linear_6041_3068)" d="M162.848 9.71401C158.509 9.71401 155.444 11.6629 153.571 15.5257V10.6282H150.386V32.7649H153.571V22.5731C153.571 19.8255 154.364 17.5148 155.922 15.5659C157.514 13.6119 159.583 12.6575 162.135 12.6575C167.033 12.6575 169.383 15.601 169.383 20.4232V32.7649H172.568V20.0213C172.568 13.6521 169.062 9.70898 162.853 9.70898L162.848 9.71401Z"/><path fill="url(#paint2_linear_6041_3068)" d="M188.18 9.71401C183.84 9.71401 180.776 11.6629 178.902 15.5257V10.6282H175.718V32.7649H178.902V22.5731C178.902 19.8255 179.696 17.5148 181.253 15.5659C182.845 13.6119 184.915 12.6575 187.467 12.6575C192.364 12.6575 194.715 15.601 194.715 20.4232V32.7649H197.899V20.0213C197.899 13.6521 194.393 9.70898 188.185 9.70898L188.18 9.71401Z"/><path fill="url(#paint3_linear_6041_3068)" d="M222.025 15.9225C222.025 14.4508 221.071 13.0543 219.157 11.7031C217.243 10.3067 214.938 9.63362 212.271 9.63362C208.805 9.63362 205.982 10.7889 203.711 13.0996C201.481 15.37 200.366 18.2331 200.366 21.6991C200.366 25.165 201.481 28.0281 203.711 30.3388C205.982 32.6092 208.81 33.7645 212.271 33.7645C215.455 33.7645 218.444 32.7699 221.191 30.7406L220.117 28.0332C217.605 29.9068 215.018 30.8612 212.271 30.8612C209.684 30.8612 207.534 29.9419 205.861 28.0734L219.278 19.3131C221.186 18.0372 222.025 17.2034 222.025 15.9276V15.9225ZM217.645 16.9221L204.309 25.602C203.792 24.3663 203.55 23.0955 203.55 21.6991C203.55 19.1122 204.384 16.9221 206.017 15.1691C207.689 13.416 209.759 12.542 212.265 12.542C213.777 12.542 215.209 12.8986 216.605 13.5768C218.002 14.2549 218.675 14.928 218.675 15.6061C218.675 16.0029 218.318 16.4399 217.64 16.9221H217.645Z"/><path fill="url(#paint4_linear_6041_3068)" d="M234.935 12.542C237.682 12.542 240.309 13.4562 242.781 15.3298L243.856 12.6626C241.108 10.6332 238.124 9.63362 234.935 9.63362C231.469 9.63362 228.646 10.7889 226.375 13.0996C224.145 15.37 223.03 18.2331 223.03 21.6991C223.03 25.165 224.145 28.0281 226.375 30.3388C228.646 32.6092 231.474 33.7645 234.935 33.7645C238.119 33.7645 241.108 32.7699 243.856 30.7406L242.781 28.0734C240.314 29.947 237.682 30.8612 234.935 30.8612C232.428 30.8612 230.354 29.9871 228.686 28.2341C227.053 26.481 226.22 24.291 226.22 21.7041C226.22 19.1172 227.053 16.9271 228.686 15.1741C230.359 13.421 232.428 12.547 234.935 12.547V12.542Z"/><path fill="url(#paint5_linear_6041_3068)" d="M249.512 10.6282V0.235466L246.322 2.30997V32.7699H249.512V13.4964H257.272V10.6282H249.512Z"/><defs><linearGradient id="paint0_linear_6041_3068" x1="102.798" x2="257.272" y1="17" y2="17" gradientUnits="userSpaceOnUse"><stop stop-color="#7BA7FE"/><stop offset=".5" stop-color="#B2A7FF"/><stop offset="1" stop-color="#EAE6FF"/></linearGradient><linearGradient id="paint1_linear_6041_3068" x1="102.798" x2="257.272" y1="17" y2="17" gradientUnits="userSpaceOnUse"><stop stop-color="#7BA7FE"/><stop offset=".5" stop-color="#B2A7FF"/><stop offset="1" stop-color="#EAE6FF"/></linearGradient><linearGradient id="paint2_linear_6041_3068" x1="102.798" x2="257.272" y1="17" y2="17" gradientUnits="userSpaceOnUse"><stop stop-color="#7BA7FE"/><stop offset=".5" stop-color="#B2A7FF"/><stop offset="1" stop-color="#EAE6FF"/></linearGradient><linearGradient id="paint3_linear_6041_3068" x1="102.798" x2="257.272" y1="17" y2="17" gradientUnits="userSpaceOnUse"><stop stop-color="#7BA7FE"/><stop offset=".5" stop-color="#B2A7FF"/><stop offset="1" stop-color="#EAE6FF"/></linearGradient><linearGradient id="paint4_linear_6041_3068" x1="102.798" x2="257.272" y1="17" y2="17" gradientUnits="userSpaceOnUse"><stop stop-color="#7BA7FE"/><stop offset=".5" stop-color="#B2A7FF"/><stop offset="1" stop-color="#EAE6FF"/></linearGradient><linearGradient id="paint5_linear_6041_3068" x1="102.798" x2="257.272" y1="17" y2="17" gradientUnits="userSpaceOnUse"><stop stop-color="#7BA7FE"/><stop offset=".5" stop-color="#B2A7FF"/><stop offset="1" stop-color="#EAE6FF"/></linearGradient></defs></svg>